<svg width="20" height="20" viewBox="0 0 20 20" fill="none" xmlns="http://www.w3.org/2000/svg">
<g clip-path="url(#clip0_1398_739)">
<path d="M17.5 1.25C17.8315 1.25 18.1495 1.3817 18.3839 1.61612C18.6183 1.85054 18.75 2.16848 18.75 2.5V17.5C18.75 17.8315 18.6183 18.1495 18.3839 18.3839C18.1495 18.6183 17.8315 18.75 17.5 18.75H2.5C2.16848 18.75 1.85054 18.6183 1.61612 18.3839C1.3817 18.1495 1.25 17.8315 1.25 17.5V2.5C1.25 2.16848 1.3817 1.85054 1.61612 1.61612C1.85054 1.3817 2.16848 1.25 2.5 1.25H17.5ZM2.5 0C1.83696 0 1.20107 0.263392 0.732233 0.732233C0.263392 1.20107 0 1.83696 0 2.5L0 17.5C0 18.163 0.263392 18.7989 0.732233 19.2678C1.20107 19.7366 1.83696 20 2.5 20H17.5C18.163 20 18.7989 19.7366 19.2678 19.2678C19.7366 18.7989 20 18.163 20 17.5V2.5C20 1.83696 19.7366 1.20107 19.2678 0.732233C18.7989 0.263392 18.163 0 17.5 0L2.5 0Z" fill="white"/>
<path d="M6.56863 7.2325C6.56691 7.27287 6.57348 7.31316 6.58791 7.3509C6.60235 7.38863 6.62435 7.42302 6.65257 7.45194C6.68079 7.48085 6.71462 7.5037 6.75199 7.51906C6.78936 7.53442 6.82948 7.54197 6.86987 7.54125H7.90113C8.07363 7.54125 8.21112 7.4 8.23362 7.22875C8.34612 6.40875 8.90862 5.81125 9.91112 5.81125C10.7686 5.81125 11.5536 6.24 11.5536 7.27125C11.5536 8.065 11.0861 8.43 10.3474 8.985C9.50612 9.59625 8.83988 10.31 8.88738 11.4688L8.89112 11.74C8.89244 11.822 8.92594 11.9002 8.9844 11.9577C9.04287 12.0153 9.1216 12.0475 9.20362 12.0475H10.2174C10.3003 12.0475 10.3797 12.0146 10.4383 11.956C10.497 11.8974 10.5299 11.8179 10.5299 11.735V11.6038C10.5299 10.7063 10.8711 10.445 11.7924 9.74625C12.5536 9.1675 13.3474 8.525 13.3474 7.17625C13.3474 5.2875 11.7524 4.375 10.0061 4.375C8.42238 4.375 6.68738 5.1125 6.56863 7.2325ZM8.51487 14.4362C8.51487 15.1025 9.04613 15.595 9.77738 15.595C10.5386 15.595 11.0624 15.1025 11.0624 14.4362C11.0624 13.7463 10.5374 13.2613 9.77613 13.2613C9.04613 13.2613 8.51487 13.7463 8.51487 14.4362Z" fill="white"/>
</g>
<defs>
<clipPath id="clip0_1398_739">
<rect width="20" height="20" fill="white"/>
</clipPath>
</defs>
</svg>
